<?xml version="1.0" encoding="UTF-8"?>
<!DOCTYPE svg PUBLIC "-//W3C//DTD SVG 1.1//EN" "http://www.w3.org/Graphics/SVG/1.1/DTD/svg11.dtd">
<!-- Creator: CorelDRAW 2017 -->
<svg xmlns="http://www.w3.org/2000/svg" xml:space="preserve" width="50%" height="50%" version="1.1" shape-rendering="geometricPrecision" text-rendering="geometricPrecision" image-rendering="optimizeQuality" fill-rule="evenodd" clip-rule="evenodd"
viewBox="0 0 30367.96 6334.57"
 xmlns:xlink="http://www.w3.org/1999/xlink">
 <g id="Layer_x0020_1">
  <metadata id="CorelCorpID_0Corel-Layer"/>
  <polygon fill="#AFC0D2" points="-0,2390.08 2634.81,0 3144.13,1229.22 438.77,3688.74 "/>
  <polygon fill="#AFC0D2" points="1217.09,5035.92 3851.89,2645.84 4361.22,3875.05 1655.85,6334.57 "/>
  <polygon fill="#627587" points="1729.38,2515.4 3851.89,2645.84 2564.48,3813.67 438.77,3688.74 "/>
  <path fill="#ffffff" fill-rule="nonzero" d="M11234.85 3988.87c0,142.44 -16.87,270.63 -50.6,384.57 -33.73,114.9 -78.11,214.61 -133.15,301.97 -55.92,87.36 -120.72,161.42 -195.29,223.14 -74.57,60.78 -151.79,111.11 -231.69,150.04 -79.89,38.94 -160.66,67.42 -243.22,86.42 -82.56,18.04 -159.79,27.54 -232.58,27.54l-2608.9 0 0 -723.58 2608.9 0c129.61,0 230.8,-40.83 302.7,-122.49 71.91,-81.66 108.3,-190.87 108.3,-327.6 0,-67.43 -9.77,-128.2 -28.4,-184.22 -19.54,-55.08 -47.05,-103.51 -82.56,-144.34 -35.51,-40.83 -79.01,-72.17 -129.6,-94.96 -51.49,-21.84 -108.3,-33.24 -170.44,-33.24l-1555.22 0c-109.18,0 -227.25,-20.89 -353.3,-62.68 -126.94,-41.78 -244.11,-108.25 -352.41,-201.3 -109.18,-93.06 -198.85,-214.61 -270.75,-364.64 -71.9,-150.04 -108.3,-333.3 -108.3,-550.75 0,-217.46 36.4,-399.77 108.3,-549.8 71.9,-149.08 161.57,-270.63 270.75,-363.69 108.3,-94.01 225.47,-161.43 352.41,-203.21 126.05,-41.78 244.12,-62.67 353.3,-62.67l2301.76 0 0 722.62 -2301.76 0c-128.71,0 -228.13,41.79 -300.03,125.35 -71.91,83.57 -108.31,193.72 -108.31,331.4 0,138.64 36.4,248.79 108.31,329.5 71.9,80.72 171.32,121.55 300.03,121.55l1555.22 0 5.33 0c72.79,1.9 150.02,12.35 230.8,31.33 81.67,19.95 163.33,50.34 243.22,90.22 80.78,40.83 158.01,93.06 230.81,154.78 72.78,62.68 137.59,136.74 193.52,224.1 55.92,87.36 101.19,187.06 134.04,300.06 32.85,113 48.82,241.19 48.82,384.58zm1243.65 1173.67l-676.42 0 0 -3989.14 676.42 0 0 3989.14zm5130.8 0l-680.85 0 0 -2375.82 -1199.26 2256.18c-29.3,57.92 -71.02,100.65 -123.4,131.04 -53.26,29.44 -110.07,44.63 -170.43,44.63 -59.48,0 -114.51,-15.2 -165.11,-44.63 -51.49,-30.39 -91.43,-73.12 -120.72,-131.04l-1204.59 -2256.18 0 2375.82 -676.42 0 0 -3680.53c0,-83.56 23.08,-157.63 69.25,-222.2 46.16,-65.52 106.52,-109.2 181.09,-131.04 36.39,-9.5 72.79,-12.35 109.18,-9.5 36.4,2.85 71.02,10.45 104.75,24.69 33.73,14.25 64.8,33.24 92.32,58.88 28.4,24.69 51.49,55.08 70.13,90.22l1540.13 2861.99 1539.24 -2861.99c39.96,-70.27 94.99,-120.6 165.12,-150.04 70.13,-30.39 143.81,-35.14 220.14,-14.24 72.8,21.84 132.27,65.52 179.32,131.04 47.05,64.57 70.12,138.64 70.12,222.2l0 3680.53zm4501.45 -2319.8c0,164.28 -19.53,312.41 -57.7,441.55 -38.17,130.09 -89.66,244.99 -154.46,343.75 -64.81,99.71 -140.25,184.21 -224.59,254.48 -85.22,71.22 -173.99,128.2 -267.2,172.83 -92.32,44.63 -186.41,76.92 -280.51,96.86 -94.09,20.89 -182.86,31.34 -266.31,31.34l-1529.48 0 0 -723.57 1529.48 0c86.11,-7.6 165.11,-26.59 235.24,-56.98 70.13,-30.39 130.5,-72.17 181.09,-123.44 49.71,-52.23 88.77,-114.9 116.29,-188.02 28.41,-73.12 41.72,-156.68 41.72,-248.79l0 -328.55c-8.88,-91.16 -26.63,-174.73 -54.15,-250.69 -28.41,-75.97 -65.7,-140.54 -113.63,-194.66 -47.05,-53.18 -104.75,-95.91 -173.1,-126.3 -67.47,-30.39 -145.59,-46.53 -233.47,-46.53l-1524.15 0c-90.55,0 -158.9,25.64 -205.94,75.97 -46.17,49.38 -70.14,122.5 -70.14,216.51l0 2974.05 -675.52 0 0 -2974.05c0,-185.17 31.07,-342.8 94.98,-472.89 63.03,-130.1 142.03,-234.55 236.13,-314.31 94.98,-79.77 197.07,-137.69 308.02,-173.78 110.97,-36.09 213.93,-54.13 307.15,-54.13l1529.48 0c152.68,0 289.39,20.9 411,62.67 120.73,41.79 228.14,96.86 320.46,167.13 93.21,69.32 172.21,149.08 237.01,240.24 64.8,91.16 118.95,186.12 161.57,284.87 42.6,99.71 72.79,199.42 92.32,301.02 18.64,100.66 28.4,195.61 28.4,284.88l0 328.55zm3643.94 689.39l-2135.77 0 0 -728.32 2135.77 0 0 728.32zm303.59 1630.41l-2439.35 0c-93.21,0 -195.29,-18.05 -306.25,-53.18 -110.96,-35.14 -213.94,-93.06 -308.92,-173.78 -94.09,-80.72 -173.1,-185.17 -236.12,-314.31 -63.92,-129.14 -94.99,-286.77 -94.99,-473.83l0 -2609.41c0,-50.33 8.88,-97.81 25.75,-142.44 17.76,-44.63 40.84,-83.57 71.91,-116.8 30.19,-33.23 65.69,-58.87 107.41,-77.86 41.72,-18.04 87,-27.54 135.82,-27.54l3044.75 0 0 722.62 -2709.21 0 0 2251.43c0,94.01 23.09,166.18 70.13,216.5 46.16,50.33 115.4,75.02 205.06,75.02l2434.03 0 0 723.58zm4309.7 -364.64c0,52.23 -8.88,100.65 -25.75,145.29 -17.75,43.68 -41.72,82.62 -71.9,114.9 -30.19,32.29 -66.58,57.92 -108.31,76.92 -40.84,18.04 -86.1,27.54 -134.93,27.54l-2439.36 0c-62.14,0 -129.6,-7.6 -201.5,-23.74 -71.9,-15.19 -142.92,-39.89 -213.05,-74.07 -70.13,-33.24 -137.59,-75.97 -201.5,-129.15 -64.8,-52.22 -120.73,-116.8 -170.44,-191.81 -49.71,-75.02 -88.77,-162.38 -118.06,-261.13 -30.19,-99.71 -44.39,-211.76 -44.39,-335.2l0 -1958.96c0,-66.47 7.1,-138.64 22.2,-215.56 14.21,-76.92 37.28,-152.88 68.35,-227.89 31.07,-75.02 71.9,-147.19 122.5,-215.56 50.6,-68.37 110.07,-129.15 181.09,-182.32 70.12,-53.18 150.9,-94.96 243.22,-126.3 91.43,-32.29 195.3,-47.48 311.58,-47.48l2749.16 0 0 722.62 -2749.16 0c-88.77,0 -156.23,25.64 -202.39,75.97 -47.05,49.38 -71.01,123.45 -71.01,222.2l0 1953.26c0,92.11 23.96,164.28 71.9,215.55 47.94,50.33 114.51,75.97 201.5,75.97l2103.81 0 0 -906.84 -1799.34 0 0 -728.32 2134.88 0c48.83,0 94.09,9.49 134.93,28.49 41.73,19.94 78.12,46.53 108.31,79.76 30.18,33.24 54.15,72.18 71.9,114.9 16.87,43.68 25.75,91.16 25.75,140.54l0 1630.41z"/>
 </g>
</svg>
